<?xml version="1.0" standalone="no"?>
<!DOCTYPE svg PUBLIC "-//W3C//DTD SVG 1.1//EN" "http://www.w3.org/Graphics/SVG/1.1/DTD/svg11.dtd" >
<svg xmlns="http://www.w3.org/2000/svg">
<metadata></metadata>
<defs>
<font id="blisslightlight" horiz-adv-x="1054" >
<font-face units-per-em="2048" ascent="1638" descent="-410" />
<missing-glyph horiz-adv-x="512" />
<glyph horiz-adv-x="0" />
<glyph unicode="&#xd;" horiz-adv-x="512" />
<glyph unicode=" "  horiz-adv-x="512" />
<glyph unicode="&#x09;" horiz-adv-x="512" />
<glyph unicode="&#xa0;" horiz-adv-x="512" />
<glyph unicode="!" horiz-adv-x="569" d="M176 92q0 47 32 81t79 34t78.5 -34t31.5 -81t-31.5 -81t-78.5 -34t-79 34t-32 81zM211 1227v123h154v-125q0 -559 -48 -883h-61q-45 311 -45 885z" />
<glyph unicode="&#x22;" horiz-adv-x="704" d="M125 1450h160l-23 -436h-110zM424 1450h160l-23 -436h-110z" />
<glyph unicode="#" horiz-adv-x="1351" d="M74 369v135h293l77 364h-264v136h293l74 346h149l-73 -346h239l74 346h149l-73 -346h270v-136h-299l-78 -364h271v-135h-299l-78 -369h-150l78 369h-240l-77 -369h-150l78 369h-264zM516 504h240l78 364h-240z" />
<glyph unicode="$" d="M150 129l69 123q125 -88 275 -88q98 0 168 43q80 51 79 145q0 94 -84 168q-41 35 -186 117q-131 76 -188 137q-96 104 -97 242q0 117 78 200.5t213 104.5v190h139v-186q131 -10 226 -59v-158q-129 86 -279 86q-100 0 -162 -43q-68 -47 -67 -135q0 -104 147 -203 q137 -86 275 -174q147 -119 147 -281q0 -127 -86 -212t-229 -109v-197h-139v193q-170 10 -299 96z" />
<glyph unicode="%" horiz-adv-x="1673" d="M125 1004q0 172 94 272q86 92 221 92t219 -92q89 -98 89 -270t-93 -273q-88 -92 -223 -92t-217 92q-90 98 -90 271zM274 1008q0 -256 166 -256q158 0 158 252q0 254 -166 253q-158 0 -158 -249zM301 -41l913 1425h162l-913 -1425h-162zM930 344q0 172 94 272 q86 92 221 93q135 0 219 -93q88 -98 88 -270t-92 -272q-88 -92 -223 -92t-217 92q-90 98 -90 270zM1079 348q0 -256 166 -256q158 0 158 252q0 254 -166 254q-158 0 -158 -250z" />
<glyph unicode="&#x26;" horiz-adv-x="1445" d="M115 358q0 266 305 392q-88 98 -119 155q-45 80 -45 174q0 119 94 202t242 83q147 0 237.5 -81t90.5 -210q0 -211 -285 -360q164 -203 360 -375q68 72 129.5 168t77.5 158l129 -31q-45 -172 -241 -381q158 -152 262 -152q18 0 34 4l31 -94q-41 -23 -108 -22 q-129 0 -326 176q-211 -186 -469 -187q-184 0 -297 119q-102 106 -102 262zM274 369q0 -113 76 -186.5t203 -73.5q187 0 332 137q-215 199 -385 407q-225 -94 -226 -284zM403 1077q0 -59 37 -123q27 -47 113 -149q219 109 219 254q0 66 -39 112q-49 63 -147 64 q-88 0 -140 -53q-43 -45 -43 -105z" />
<glyph unicode="'" horiz-adv-x="405" d="M125 1450h160l-23 -436h-110z" />
<glyph unicode="(" horiz-adv-x="634" d="M156 549q0 645 319 1038l109 -71q-150 -223 -205 -406q-63 -215 -64 -561q0 -344 66 -559q55 -179 205 -404l-111 -71q-319 393 -319 1034z" />
<glyph unicode=")" horiz-adv-x="634" d="M53 -414q150 225 205 404q66 215 66 559q0 346 -64 561q-55 182 -205 406l109 71q319 -393 319 -1038q0 -641 -319 -1034z" />
<glyph unicode="*" horiz-adv-x="983" d="M135 950q43 25 152.5 69t136.5 58q-104 41 -289 127l70 121q96 -74 250 -186q0 29 -17 147q-14 113 -14 164h139q0 -49 -16 -160q-16 -121 -19 -147q88 68 252 182l70 -121q-45 -27 -150 -67q-117 -45 -137 -56q103 -41 289 -129l-72 -121q-43 25 -135 99t-115 88 q0 -29 17.5 -144.5t17.5 -166.5l-137 -2q-2 53 14 163q16 129 19 148q-88 -70 -254 -187z" />
<glyph unicode="+" horiz-adv-x="1282" d="M156 451v139h413v440h150v-440h407v-139h-407v-451h-150v451h-413z" />
<glyph unicode="," horiz-adv-x="405" d="M74 -195q63 127 63 263q0 57 -10 133l158 35q10 -57 10 -113q0 -213 -145 -367z" />
<glyph unicode="-" horiz-adv-x="743" d="M104 438v135h539v-135h-539z" />
<glyph unicode="." horiz-adv-x="405" d="M98 92q0 47 32 81t79 34t78.5 -34t31.5 -81t-31.5 -81t-78.5 -34t-79 34t-32 81z" />
<glyph unicode="/" horiz-adv-x="706" d="M23 -66l520 1491h145l-520 -1491h-145z" />
<glyph unicode="0" d="M63 668q0 328 132 512q125 180 335 180q209 0 335 -182t126 -510q0 -324 -133 -510q-129 -178 -340 -178q-209 0 -332 181t-123 507zM215 688q0 -270 92 -428q86 -150 225 -149q145 0 230 159q78 150 78 383q0 270 -90 428q-88 150 -228 150q-145 0 -229 -160 q-78 -150 -78 -383z" />
<glyph unicode="1" d="M229 1159l394 201h116v-1360h-145v1196l-322 -156z" />
<glyph unicode="2" d="M104 0q29 324 201 526q57 66 305 252q156 119 156 248q0 199 -231 199q-174 0 -334 -97l-51 123q193 109 405 109q178 0 279 -96q92 -90 92 -230q0 -178 -148 -311q-145 -111 -293 -223q-168 -152 -200 -363l633 10v-147h-814z" />
<glyph unicode="3" d="M96 47l45 119q139 -61 312 -62q133 0 229 68q109 74 109 197q0 248 -357 247h-168v132l137 4q354 10 355 266q0 92 -66.5 150.5t-177.5 58.5q-162 0 -338 -97l-43 119q211 111 399 111q180 0 283 -98q94 -90 94 -232q0 -223 -215 -323v-2q113 -18 183.5 -100.5 t70.5 -209.5q0 -182 -129 -295q-137 -121 -387 -120q-193 0 -336 67z" />
<glyph unicode="4" d="M86 356v121l653 883h95v-866h200v-138h-200v-360h-146v360h-602zM252 487q82 0 199 2l235 5l2 395q0 96 6 198z" />
<glyph unicode="5" d="M139 35l47 123q94 -51 254 -52q143 0 238 74q102 78 102 213q0 283 -374 283h-177v670h711l-35 -146l-530 8v-399q39 2 74 2q250 0 378 -123q111 -106 111 -276q0 -188 -127 -306q-139 -127 -391 -126q-174 0 -281 55z" />
<glyph unicode="6" d="M72 606q0 311 153 527q164 227 424 227q143 0 256 -53l-45 -127q-100 51 -196 51q-174 0 -292 -135t-132 -361q176 109 321 109q176 0 293 -105q127 -114 127 -313q0 -205 -123 -329t-311 -124q-211 0 -336 148q-139 164 -139 485zM233 598q-10 -211 81.5 -351.5 t236.5 -140.5q123 0 199.5 81.5t76.5 228.5q0 133 -77.5 212t-192.5 79q-162 0 -324 -109z" />
<glyph unicode="7" d="M168 1350h844v-68q-469 -678 -568 -1286h-151q86 555 518 1225l-608 -11z" />
<glyph unicode="8" d="M70 350q0 236 247 342v2q-193 117 -192 312q0 154 113.5 254t312.5 100q197 0 303 -113q90 -96 90 -231q0 -195 -211 -324v-2q254 -86 254 -336q0 -162 -129 -268t-340 -106q-215 0 -331.5 97t-116.5 273zM223 354q0 -121 86 -186.5t219 -65.5q125 0 213 67.5t88 180.5 q0 119 -106 195q-94 68 -252 90q-90 -27 -158 -88q-90 -84 -90 -193zM274 1018q0 -213 312 -281q200 113 200 275q0 92 -63 157q-72 70 -186 70q-115 0 -189 -62.5t-74 -158.5z" />
<glyph unicode="9" d="M86 913q0 190 121 318.5t309 128.5q213 0 336 -160q127 -168 127 -479q0 -340 -152.5 -540.5t-420.5 -200.5q-152 0 -289 57l45 129q121 -57 248 -57q182 0 293.5 138t119.5 378h-2q-160 -129 -325 -129q-164 0 -275 92q-135 113 -135 325zM240 932q0 -141 72.5 -221 t209.5 -80q90 0 176 47q76 41 119 102q0 207 -84 330t-221 123q-127 0 -199.5 -84t-72.5 -217z" />
<glyph unicode=":" horiz-adv-x="405" d="M98 92q0 47 32 81t79 34t78.5 -34t31.5 -81t-31.5 -81t-78.5 -34t-79 34t-32 81zM98 817q0 47 32 81t79 34t78.5 -34t31.5 -81t-31.5 -81t-78.5 -34t-79 34t-32 81z" />
<glyph unicode=";" horiz-adv-x="405" d="M74 -195q63 127 63 263q0 57 -10 133l158 35q10 -57 10 -113q0 -213 -145 -367zM98 817q0 47 32 81t79 34t78.5 -34t31.5 -81t-31.5 -81t-78.5 -34t-79 34t-32 81z" />
<glyph unicode="&#x3c;" horiz-adv-x="1282" d="M156 465v135l888 397v-153l-622 -269l-115 -40v-5l115 -41l622 -268v-153z" />
<glyph unicode="=" horiz-adv-x="1282" d="M156 272v140h970v-140h-970zM156 633v139h970v-139h-970z" />
<glyph unicode="&#x3e;" horiz-adv-x="1282" d="M238 68v153l622 268l115 41v5l-115 40l-622 269v153l888 -397v-135z" />
<glyph unicode="?" horiz-adv-x="933" d="M135 1227q147 158 367 157q143 0 227 -76.5t84 -211.5q0 -129 -108 -248q-39 -41 -201 -170q-109 -84 -109 -137q0 -51 62 -125l-105 -86q-102 96 -102 209q0 94 106 190q98 82 199 162q106 98 107 201q0 78 -49.5 121.5t-129.5 43.5q-143 0 -274 -127zM301 92 q0 47 32 81t79 34t78.5 -34t31.5 -81t-31.5 -81t-78.5 -34t-79 34t-32 81z" />
<glyph unicode="@" horiz-adv-x="1589" d="M94 618q0 348 209 566q203 211 514 211q293 0 487.5 -178t194.5 -461q0 -225 -98 -350q-94 -117 -256 -117q-78 0 -131 47t-64 123h-2q-25 -55 -98 -107q-86 -59 -176 -59q-242 0 -242 323q0 197 119 323t293 126q137 0 276 -88l-47 -344q-8 -59 -8 -98q0 -129 100 -129 q84 0 138.5 97t54.5 257q0 205 -137 348q-152 162 -408 162q-258 0 -416.5 -174t-158.5 -473q0 -262 139 -412q133 -145 352 -145q164 0 260 51l49 -121q-141 -55 -325 -55q-283 0 -451 185t-168 492zM575 612q0 -195 130 -194q84 0 145 59q88 84 108 271l17 155 q-70 45 -139 45q-109 0 -185 -94t-76 -242z" />
<glyph unicode="A" horiz-adv-x="1187" d="M39 0l516 1354h84l518 -1354h-158l-139 360h-543l-129 -360h-149zM373 494h434l-160 456q-37 106 -51 168h-2q-16 -63 -53 -166z" />
<glyph unicode="B" horiz-adv-x="1075" d="M176 0v1350h377q172 0 268 -105q84 -92 84 -221q0 -223 -186 -299v-2q102 -16 180 -105q86 -96 86 -223q0 -162 -100 -266q-123 -129 -371 -129h-338zM326 139h200q139 0 217 70.5t78 181.5q0 98 -77.5 165t-204.5 67h-213v-484zM326 760h174q96 0 166 59q77 65 77 176 q0 215 -245 215h-172v-450z" />
<glyph unicode="C" horiz-adv-x="1189" d="M94 659q0 297 188.5 499t483.5 202q217 0 344 -80v-160q-164 104 -350 105q-223 0 -364.5 -159t-141.5 -396q0 -246 135 -399.5t369 -153.5q160 0 317 86l45 -123q-180 -100 -379 -100q-295 0 -471 190t-176 489z" />
<glyph unicode="D" horiz-adv-x="1294" d="M176 0v1350h293q369 0 561 -191q174 -174 174 -471q0 -301 -172 -483q-195 -205 -555 -205h-301zM326 139h166q291 0 436 166q123 141 123 385q0 227 -133 367q-146 153 -418 153h-4h-170v-1071z" />
<glyph unicode="E" horiz-adv-x="954" d="M176 0v1350h662l-58 -140h-454v-450h450v-137h-450v-484h518v-139h-668z" />
<glyph unicode="F" horiz-adv-x="937" d="M176 0v1350h662l-58 -140h-454v-456h450v-138h-450v-616h-150z" />
<glyph unicode="G" horiz-adv-x="1359" d="M94 653q0 317 194.5 512t510.5 195q215 0 375 -82v-162q-195 104 -383 105q-252 0 -394.5 -149.5t-142.5 -397.5q0 -260 146.5 -407.5t400.5 -147.5q166 0 258 55v477h149v-565q-193 -106 -442 -106q-297 0 -484.5 187t-187.5 486z" />
<glyph unicode="H" horiz-adv-x="1386" d="M176 0v1350h150v-596h739v596h149v-1350h-149v616h-739v-616h-150z" />
<glyph unicode="I" horiz-adv-x="497" d="M176 0v1350h150v-1350h-150z" />
<glyph unicode="J" horiz-adv-x="600" d="M-37 -352l29 127q43 -16 110 -17q100 0 142 78q35 68 35 217v1297h149v-1297q0 -213 -66 -309q-78 -115 -274 -115q-74 0 -125 19z" />
<glyph unicode="K" horiz-adv-x="1093" d="M176 0v1350h150v-621h2l501 617h187l-555 -664l604 -682h-199l-538 610h-2v-610h-150z" />
<glyph unicode="L" horiz-adv-x="862" d="M176 0v1350h150v-1211h512v-139h-662z" />
<glyph unicode="M" horiz-adv-x="1622" d="M176 0v1350h154l426 -643q45 -70 67 -119h2q27 59 64 119l405 643h156v-1350h-150v975q0 74 7 143h-4q-25 -63 -68 -133l-363 -584h-98l-383 584q-45 68 -69 133h-5q8 -70 9 -143v-975h-150z" />
<glyph unicode="N" horiz-adv-x="1462" d="M176 0v1350h156l655 -877q127 -170 154 -227h4q-4 90 -4 164v940h149v-1350h-139l-684 909q-115 152 -141 211h-4q4 -90 4 -164v-956h-150z" />
<glyph unicode="O" horiz-adv-x="1519" d="M94 668q0 297 186.5 494.5t481.5 197.5q297 0 485 -199q183 -194 183 -493q0 -315 -203 -512q-182 -176 -465 -176q-299 0 -483.5 193.5t-184.5 494.5zM256 668q0 -252 136 -400.5t370 -148.5q233 0 369.5 148.5t136.5 400.5q0 244 -129 391q-135 158 -377 158 q-233 0 -369.5 -148.5t-136.5 -400.5z" />
<glyph unicode="P" horiz-adv-x="987" d="M176 0v1350h277q211 0 332.5 -110.5t121.5 -309.5q0 -186 -110 -303q-127 -133 -359 -133h-112v-494h-150zM326 629h127q292 0 292 303q0 129 -77.5 203.5t-227.5 74.5h-114v-581z" />
<glyph unicode="Q" horiz-adv-x="1519" d="M94 668q0 297 186.5 494.5t481.5 197.5t481.5 -196.5t186.5 -495.5q0 -291 -177.5 -484.5t-466.5 -210.5q86 -88 156 -125q84 -43 195 -43q96 0 166 31l32 -117q-94 -38 -230 -38h-7q-162 0 -295 96q-94 68 -211 217q-233 59 -369 246q-129 180 -129 428zM256 668 q0 -252 136 -400.5t370 -148.5q233 0 369.5 148.5t136.5 400.5q0 244 -129 391q-135 158 -377 158q-233 0 -369.5 -148.5t-136.5 -400.5z" />
<glyph unicode="R" horiz-adv-x="1081" d="M176 0v1350h279q225 0 342 -107q104 -94 104 -258q0 -135 -80 -235q-70 -88 -184 -129v-3q29 -14 141 -186q27 -39 275 -432h-179q-236 375 -260 412q-104 154 -143 161h-145v-573h-150zM326 707h137q117 0 196.5 78t79.5 184q0 241 -282 241h-2h-129v-503z" />
<glyph unicode="S" horiz-adv-x="978" d="M94 86l72 121q131 -94 295 -94q104 0 180 47q88 55 88 155q0 131 -151 234q-141 90 -283 180q-152 123 -152 295q0 147 104.5 241.5t284.5 94.5q172 0 299 -66v-159q-129 88 -294 88q-106 0 -172 -43q-74 -49 -74 -142q0 -123 155 -227q143 -92 287 -184 q156 -125 156 -297q0 -156 -121 -253t-305 -97q-209 0 -369 106z" />
<glyph unicode="T" horiz-adv-x="1026" d="M45 1210v140h973l-53 -140h-383v-1210h-150v1210h-387z" />
<glyph unicode="U" horiz-adv-x="1353" d="M176 485v865h150v-867q0 -182 96 -280q86 -88 246 -88q352 0 352 356v879h149v-899q0 -229 -139 -355q-132 -116 -362 -116h-4q-233 0 -357 118q-131 127 -131 387z" />
<glyph unicode="V" horiz-adv-x="1255" d="M33 1350h160l346 -899q25 -63 75 -209h4q33 98 78 209l375 899h156l-578 -1356h-84z" />
<glyph unicode="W" horiz-adv-x="1861" d="M33 1350h162l301 -901q43 -131 65 -211h4q12 47 72 206l233 639l-92 267h158l309 -893q27 -72 72 -209h4q20 84 59 203l295 899h158l-461 -1356h-108l-248 696q-41 113 -70 211h-4q-33 -102 -72 -211l-258 -696h-110z" />
<glyph unicode="X" horiz-adv-x="1179" d="M33 0l475 686l-451 664h179l372 -557l369 557h174l-449 -668l443 -682h-172l-373 578l-395 -578h-172z" />
<glyph unicode="Y" horiz-adv-x="1093" d="M33 1350h164l239 -432q45 -78 121 -226h4q41 92 113 226l233 432h158l-434 -809v-541h-150v545z" />
<glyph unicode="Z" horiz-adv-x="1128" d="M104 0l680 1212l-630 -6l-48 144h920l-676 -1213l709 4v-141h-955z" />
<glyph unicode="[" horiz-adv-x="567" d="M186 -475v2052h332v-127h-192v-1798h192v-127h-332z" />
<glyph unicode="\" horiz-adv-x="731" d="M33 1425h149l520 -1491h-149z" />
<glyph unicode="]" horiz-adv-x="567" d="M53 -348h193v1798h-193v127h332v-2052h-332v127z" />
<glyph unicode="^" horiz-adv-x="1282" d="M233 588l340 762h136l340 -762h-152l-213 495l-41 115h-4l-41 -115l-213 -495h-152z" />
<glyph unicode="_" horiz-adv-x="921" d="M0 -131h922v-123h-922v123z" />
<glyph unicode="`" horiz-adv-x="1095" d="M373 1389h207l182 -302h-137z" />
<glyph unicode="a" horiz-adv-x="942" d="M84 276q0 145 99.5 227.5t289.5 88.5l197 6v45q0 221 -209 221q-135 0 -254 -90l-62 109q153 110 339 110h3q332 0 332 -327v-295q1 -320 21 -371h-123l-39 94q-118 -114 -294 -114h-3q-123 0 -207 79q-90 84 -90 217zM233 287q0 -78 48 -125q49 -53 141 -53h3 q140 0 245 110v246l-193 -6q-244 -8 -244 -172z" />
<glyph unicode="b" horiz-adv-x="1009" d="M135 41v1409h150v-502q115 45 219 45q180 0 297 -116q129 -130 129 -359q0 -246 -156 -397q-147 -141 -368 -141q-178 0 -271 61zM285 135q59 -26 146 -26h7q143 0 242.5 117.5t99.5 285.5q0 154 -77.5 248t-219.5 94q-96 0 -198 -49v-670z" />
<glyph unicode="c" horiz-adv-x="862" d="M84 473q0 217 119 361q130 159 357 159h3q137 0 246 -61v-141q-111 71 -248 71h-4q-150 0 -235.5 -106.5t-85.5 -274.5q0 -164 86 -268t231 -104q127 0 242 71l47 -106q-143 -94 -307 -94q-213 0 -336 149q-115 135 -115 344z" />
<glyph unicode="d" horiz-adv-x="1021" d="M84 471q0 223 145.5 372.5t354.5 149.5q96 0 157 -16v473h150v-1401q-117 -69 -304 -69h-5q-215 0 -351 120q-147 131 -147 371zM236 481q0 -170 95 -272.5t277 -102.5q80 0 133 25v707q-65 24 -143 24h-6q-147 0 -251.5 -106.5t-104.5 -274.5z" />
<glyph unicode="e" horiz-adv-x="944" d="M84 504q0 213 109.5 351t283.5 138q184 0 285.5 -135t101.5 -364v-35h-620q0 -147 80 -244q88 -104 241 -104q121 0 230 69l45 -102q-119 -98 -305 -98q-217 0 -338 157q-113 145 -113 367zM246 586h456q0 111 -55 190q-63 90 -168 90q-104 0 -168.5 -80.5t-64.5 -199.5z " />
<glyph unicode="f" horiz-adv-x="616" d="M82 934v127h121v172q0 170 96 250q74 59 186 59q81 0 144 -125h-31h-117q-129 0 -129 -170v-186h252l-53 -127h-199v-842h-149v842h-121z" />
<glyph unicode="g" horiz-adv-x="968" d="M33 -197q0 145 184 242q-68 37 -67 119q0 92 110 184q-160 92 -160 293q0 150 105.5 251t255.5 101q106 0 170 -32q14 -8 24 2q77 73 206 73h3q31 0 62 -6l-43 -135q-41 11 -75 11q-39 0 -67 -15q113 -102 113 -252q0 -158 -105.5 -257t-275.5 -99q-70 0 -123 20 q-49 -53 -49 -113q0 -53 174 -75q244 -31 322 -62q174 -65 174 -225q0 -131 -115 -217q-129 -96 -367 -96q-213 0 -334.5 81.5t-121.5 206.5zM188 -180q0 -78 86 -129t226 -51q141 0 223 47t82 127q0 109 -191 145q-143 20 -286 41q-139 -86 -140 -180zM254 641 q0 -102 61.5 -166.5t159.5 -64.5t160.5 60t62.5 169q0 100 -62.5 162.5t-160.5 62.5t-159.5 -61.5t-61.5 -161.5z" />
<glyph unicode="h" horiz-adv-x="1034" d="M135 0v1450h150v-596q180 139 338 139q117 0 192 -78q88 -94 88 -276v-639h-149v602q0 250 -174 250q-125 0 -295 -152v-700h-150z" />
<glyph unicode="i" horiz-adv-x="471" d="M131 1276q0 43 31 73.5t74 30.5t73.5 -30.5t30.5 -73.5t-30.5 -74t-73.5 -31t-74 31t-31 74zM162 0v969h149v-969h-149z" />
<glyph unicode="j" horiz-adv-x="493" d="M-100 -451l37 117q47 -26 100 -26h4q141 0 141 237v1092h150v-1110q0 -344 -279 -344q-94 0 -153 34zM154 1276q0 43 30.5 73.5t73.5 30.5t73.5 -30.5t30.5 -73.5t-30.5 -74t-73.5 -31t-73.5 31t-30.5 74z" />
<glyph unicode="k" horiz-adv-x="872" d="M135 0v1450h150v-823h2l356 342h195l-426 -396l481 -573h-191l-415 504h-2v-504h-150z" />
<glyph unicode="l" horiz-adv-x="462" d="M135 158v1292h150v-1225q0 -59 12 -80q16 -30 65 -30h3q27 0 51 6l18 -109q-64 -32 -125 -32h-4q-170 0 -170 178z" />
<glyph unicode="m" horiz-adv-x="1638" d="M135 0v969h125l21 -117q178 141 348 141q182 0 237 -162q176 162 355 162q287 0 286 -303v-690h-149v639q0 109 -29 158q-37 61 -127 61q-137 0 -307 -149q2 -16 2 -56v-653h-149v635q0 223 -158 223q-135 0 -305 -151v-707h-150z" />
<glyph unicode="n" horiz-adv-x="1034" d="M135 0v969h123l21 -115q190 139 346 139q115 0 192 -80q86 -92 86 -262v-651h-149v596q0 256 -168 256q-131 0 -301 -152v-700h-150z" />
<glyph unicode="o" horiz-adv-x="1044" d="M84 485q0 213 111 355q120 153 324 153h3q209 0 332 -151q111 -142 111 -357q0 -217 -113 -356q-120 -149 -329 -149h-3q-184 0 -301 118q-135 139 -135 387zM236 489q0 -174 77.5 -277t210.5 -103t211 103t78 277t-77 275.5t-214 101.5q-135 0 -210.5 -101t-75.5 -276z " />
<glyph unicode="p" horiz-adv-x="1011" d="M135 -485v1413q187 65 314 65h4q221 0 350 -133t129 -364q0 -240 -152 -385q-139 -131 -334 -131q-84 0 -161 30v-495h-150zM285 147q82 -38 151 -38h4q154 0 247 103.5t93 281.5q0 180 -98 278q-88 86 -231 86q-88 0 -166 -24v-687z" />
<glyph unicode="q" horiz-adv-x="1034" d="M84 465q0 238 158 387q150 141 366 141q162 0 295 -61v-1417h-149v542q-112 -77 -258 -77h-4q-166 0 -281 122q-127 135 -127 363zM238 467q0 -166 84 -264q78 -92 196 -92q123 0 236 90v637q-64 26 -150 26h-6q-164 0 -262 -112.5t-98 -284.5z" />
<glyph unicode="r" horiz-adv-x="641" d="M135 0v969h123l21 -111q150 135 276 135h4q53 0 94 -28l-63 -146q-41 16 -92 17q-43 0 -105.5 -34t-107.5 -83v-719h-150z" />
<glyph unicode="s" horiz-adv-x="763" d="M41 53l57 117q109 -70 236 -70q90 0 147.5 39t57.5 105q0 96 -115 157q-104 55 -211 111q-115 80 -115 225q0 111 78 181q85 75 240 75h4q131 0 244 -51v-131q-135 57 -238 57q-180 0 -180 -123q0 -88 116 -149q106 -57 216 -113q116 -82 116 -217q0 -143 -108 -219 q-97 -67 -253 -67h-5q-160 0 -287 73z" />
<glyph unicode="t" horiz-adv-x="700" d="M43 842v127h158v213l149 51v-264h297l-53 -127h-244v-611q0 -118 92 -118h2q84 0 172 69l48 -106q-129 -96 -256 -96q-207 0 -207 206v656h-158z" />
<glyph unicode="u" horiz-adv-x="1032" d="M135 319v650h150v-635q0 -225 188 -225q156 0 258 129v731h150v-563q0 -347 20 -406h-119l-39 100q-140 -120 -310 -120h-3q-121 0 -197 67q-98 88 -98 272z" />
<glyph unicode="v" horiz-adv-x="917" d="M16 969h154l276 -776h5l309 776h145l-401 -975h-119z" />
<glyph unicode="w" horiz-adv-x="1425" d="M16 969h152l238 -770h6l239 770h135l242 -772h6l234 772h145l-319 -975h-136l-241 782h-6l-240 -782h-131z" />
<glyph unicode="x" horiz-adv-x="909" d="M16 0l351 500l-322 469h174l254 -381l260 381h162l-330 -475l332 -494h-168l-270 403l-275 -403h-168z" />
<glyph unicode="y" horiz-adv-x="976" d="M-25 -451l37 117q61 -31 142 -31q203 0 301 355l-437 979h160l346 -793h6l265 793h149l-369 -1061q-80 -229 -194 -322q-91 -71 -225 -71h-4q-96 0 -177 34z" />
<glyph unicode="z" horiz-adv-x="778" d="M43 0l473 842l-430 -4l-41 131h696l-458 -840l473 4v-133h-713z" />
<glyph unicode="{" horiz-adv-x="620" d="M94 496v127q59 2 84 18q45 31 45 117v440q0 162 68 246q74 94 250 129l30 -143q-109 -18 -151.5 -71.5t-42.5 -158.5v-389q0 -121 -45 -188q-35 -51 -86 -62v-4q51 -10 86 -61q45 -68 45 -189v-389q0 -104 42.5 -157.5t151.5 -71.5l-30 -144q-176 35 -250 129 q-68 84 -68 246v440q0 86 -45 117q-25 16 -84 19z" />
<glyph unicode="|" horiz-adv-x="487" d="M174 -485v2082h139v-2082h-139z" />
<glyph unicode="}" horiz-adv-x="620" d="M53 -311q109 18 152 71.5t43 157.5v389q0 121 45 189q35 51 86 61v4q-51 10 -86 62q-45 68 -45 188v389q0 104 -43 157.5t-152 72.5l31 143q176 -35 250 -129q68 -84 67 -246v-440q0 -86 45 -117q25 -16 84 -18v-127q-59 -2 -84 -19q-45 -31 -45 -117v-440 q0 -162 -67 -246q-74 -94 -250 -129z" />
<glyph unicode="~" horiz-adv-x="1282" d="M180 516q156 119 258 119q70 0 172 -39l103 -39q80 -31 127 -31q59 0 178 86l82 -118q-156 -119 -258 -119q-70 0 -172 39l-103 39q-80 31 -127 30q-59 0 -178 -86z" />
<glyph unicode="&#xa1;" horiz-adv-x="569" d="M176 879q0 47 32 80.5t79 33.5t78.5 -33.5t31.5 -80.5t-31.5 -81t-78.5 -34t-79 33.5t-32 81.5zM211 -256q0 573 45 885h61q47 -324 48 -883v-127h-154v125z" />
<glyph unicode="&#xa2;" d="M156 668q0 174 95 305t261 170v190h139v-176q127 -2 205 -43v-137q-94 47 -219 47q-156 0 -252 -109q-86 -100 -86 -239q0 -152 91 -244t228 -92q133 0 226 63l39 -106q-78 -70 -238 -86v-193h-139v199q-154 27 -252 148.5t-98 302.5z" />
<glyph unicode="&#xa3;" d="M135 0v121q182 59 182 506h-155v133h155v168q0 250 154 358q104 74 252 74q113 0 195 -41l-31 -121q-63 37 -152 37q-268 0 -268 -313v-162h387l-53 -133h-334q-4 -383 -129 -492v-2q47 6 184 6h389v-139h-776z" />
<glyph unicode="&#xa4;" d="M20 909l99 99l129 -129q127 90 276 90q152 0 275 -90l131 129l98 -99l-129 -129q88 -125 88 -274q0 -152 -90 -275l129 -131l-98 -98l-129 129q-125 -88 -275 -88q-152 0 -274 90l-129 -131l-98 98l129 129q-90 127 -91 277q0 152 91 274zM193 506q0 -141 95 -241.5 t236 -100.5t236.5 100.5t95.5 241.5t-95 241.5t-237 100.5q-141 0 -236 -100.5t-95 -241.5z" />
<glyph unicode="&#xa5;" d="M12 1350h164l234 -432q82 -152 118 -226h4q35 78 115 226l236 432h157l-362 -670h258v-133h-334v-164h334v-133h-334v-250h-149v250h-340v133h340v164h-340v133h266z" />
<glyph unicode="&#xa6;" horiz-adv-x="487" d="M174 233h139v-718h-139v718zM174 879v718h139v-718h-139z" />
<glyph unicode="&#xa7;" horiz-adv-x="1032" d="M104 -240l70 123q125 -88 275 -88q98 0 167 43q80 51 80 146q0 115 -151 209q-139 82 -281 165q-152 117 -151 285q0 186 192 285q-98 98 -98 241q0 135 102.5 223.5t272.5 88.5q162 0 280 -62v-157q-125 84 -278 84q-100 0 -162 -41q-68 -45 -68 -129q0 -109 156 -207 q143 -88 287 -176q155 -119 155 -281q0 -176 -194 -291q100 -100 100 -231q0 -150 -114.5 -239t-292.5 -89q-199 0 -347 98zM260 662q0 -113 143 -209q139 -82 277 -166q111 90 111 211q0 119 -142 209q-133 78 -266 153q-123 -78 -123 -198z" />
<glyph unicode="&#xa8;" horiz-adv-x="790" d="M127 1249q0 41 27.5 70t68.5 29t68.5 -29t27.5 -70t-27.5 -69.5t-68.5 -28.5t-68.5 28.5t-27.5 69.5zM475 1249q0 41 27.5 70t68.5 29t69 -29t28 -70t-28 -69.5t-69 -28.5t-68.5 28.5t-27.5 69.5z" />
<glyph unicode="&#xa9;" horiz-adv-x="1624" d="M133 670q0 299 188.5 494.5t489.5 195.5q293 0 486.5 -196.5t193.5 -493.5t-195.5 -493.5t-488.5 -196.5q-301 0 -487.5 194.5t-186.5 495.5zM256 670q0 -254 159.5 -422t395.5 -168q238 0 397.5 168t159.5 422t-159.5 422t-397.5 168q-236 0 -395.5 -168t-159.5 -422z M438 662q0 178 114 298.5t292 120.5q129 0 207 -47v-127q-102 63 -211 64q-125 0 -202 -85t-77 -218q0 -135 75 -220.5t202 -85.5q92 0 188 56l39 -99q-111 -66 -244 -65q-168 0 -275.5 114.5t-107.5 293.5z" />
<glyph unicode="&#xaa;" horiz-adv-x="827" d="M156 899q0 94 63.5 148.5t175.5 58.5l140 4v25q0 115 -132 114q-86 0 -161 -57l-47 90q104 78 235 78q231 0 232 -211v-191q0 -200 14 -237h-98l-21 61q-78 -74 -203 -73q-86 0 -142 52t-56 138zM287 907q0 -96 96 -96q95 0 152 61v134l-121 -2q-127 -2 -127 -97z" />
<glyph unicode="&#xab;" horiz-adv-x="1105" d="M104 494l336 475l119 -76l-287 -399l287 -398l-119 -76zM500 494l336 475l118 -76l-286 -399l286 -398l-118 -76z" />
<glyph unicode="&#xac;" horiz-adv-x="1282" d="M156 631v139h970v-590h-149v451h-821z" />
<glyph unicode="&#xad;" horiz-adv-x="743" d="M104 438v135h539v-135h-539z" />
<glyph unicode="&#xae;" horiz-adv-x="1216" d="M133 879q0 207 132 344t341 137q205 0 341 -137t136 -344q0 -205 -138 -343.5t-341 -138.5q-209 0 -340 136.5t-131 345.5zM233 879q0 -168 105.5 -281t265.5 -113t265.5 113t105.5 281t-105.5 280.5t-265.5 112.5t-265.5 -112.5t-105.5 -280.5zM440 614v541h146 q86 0 134 -41t48 -106q0 -104 -115 -144h2q27 -14 166 -250h-108q-49 82 -99 164q-37 59 -53 60h-29v-224h-92zM532 915h37q103 0 103 82q0 78 -97 78h-43v-160z" />
<glyph unicode="&#xaf;" horiz-adv-x="798" d="M143 1171v105h516v-105h-516z" />
<glyph unicode="&#xb0;" horiz-adv-x="811" d="M92 1036q0 133 90 223.5t224 90.5q133 0 223 -90.5t90 -223.5t-90 -223t-223 -90t-223.5 90t-90.5 223zM225 1036q0 -82 51.5 -136t129.5 -54t129 54t51 136t-51.5 136.5t-128.5 54.5q-78 0 -129.5 -54.5t-51.5 -136.5z" />
<glyph unicode="&#xb1;" horiz-adv-x="1277" d="M156 0v139h970v-139h-970zM156 563v139h413v308h150v-308h407v-139h-407v-307h-150v307h-413z" />
<glyph unicode="&#xb2;" horiz-adv-x="708" d="M63 545q14 193 117 315q41 49 182 152q94 68 95 135q0 100 -109 100q-78 0 -205 -73l-49 108q143 82 281 82q109 0 170 -59.5t61 -151.5q0 -113 -82 -186q-82 -57 -164 -117q-98 -76 -124 -182l362 8v-131h-535z" />
<glyph unicode="&#xb3;" horiz-adv-x="708" d="M76 580l43 112q100 -39 192 -39q76 0 122 31t46 86q0 123 -207 123h-98v125l105 2q88 2 137 45q41 35 41 86q0 96 -113 96q-84 0 -203 -53l-41 109q133 61 267 61q115 0 175 -55.5t60 -143.5q0 -70 -40 -122t-99 -72v-2q68 -10 116 -59.5t48 -125.5q0 -113 -78 -178 q-82 -72 -236 -71q-145 0 -237 45z" />
<glyph unicode="&#xb4;" horiz-adv-x="1095" d="M373 1087l182 302h207l-252 -302h-137z" />
<glyph unicode="&#xb6;" horiz-adv-x="1200" d="M104 967q0 162 104.5 272.5t260.5 110.5h559v-1678h-149v1551h-232v-1551h-149v914h-29q-156 0 -260.5 111.5t-104.5 269.5z" />
<glyph unicode="&#xb7;" horiz-adv-x="405" d="M98 522q0 47 32 81t79 34t78.5 -34t31.5 -81t-31.5 -80.5t-78.5 -33.5t-79 33.5t-32 80.5z" />
<glyph unicode="&#xb8;" horiz-adv-x="1064" d="M350 -342l31 82q43 -25 92 -25q82 0 82 62q0 53 -86 55l-66 2l54 166h110l-30 -96q137 -12 137 -123q0 -70 -66 -113q-57 -37 -133 -37q-80 0 -125 27z" />
<glyph unicode="&#xb9;" horiz-adv-x="708" d="M117 1239l239 121h119v-815h-137v665l-180 -84z" />
<glyph unicode="&#xba;" horiz-adv-x="907" d="M156 1032q0 152 90 244q82 84 213 84q135 0 216 -89t81 -239q0 -158 -99 -252q-76 -74 -211 -73q-121 0 -200 77q-90 88 -90 248zM295 1034q0 -102 45 -159.5t119 -57.5q159 0 159 215q0 217 -159 217q-74 0 -119 -56t-45 -159z" />
<glyph unicode="&#xbb;" horiz-adv-x="1105" d="M156 96l286 398l-286 399l118 76l336 -475l-336 -474zM551 96l287 398l-287 399l119 76l336 -475l-336 -474z" />
<glyph unicode="&#xbc;" horiz-adv-x="1617" d="M72 1239l239 121h119v-815h-137v665l-180 -84zM250 -41l913 1425h162l-913 -1425h-162zM856 184v101l393 530h140v-508h108v-123h-108v-184h-138v184h-395zM1020 299q98 8 160 8h69v94q0 180 2 213z" />
<glyph unicode="&#xbd;" horiz-adv-x="1617" d="M72 1239l239 121h119v-815h-137v665l-180 -84zM250 -41l913 1425h162l-913 -1425h-162zM1008 0q14 193 116 315q41 49 183 152q94 68 94 135q0 100 -109 100q-78 0 -205 -73l-49 108q143 82 281 82q109 0 170 -59.5t61 -151.5q0 -113 -82 -186q-82 -57 -163 -117 q-98 -76 -125 -182l362 8v-131h-534z" />
<glyph unicode="&#xbe;" horiz-adv-x="1617" d="M55 580l43 112q100 -39 193 -39q76 0 122 31t46 86q0 123 -207 123h-98v125l104 2q88 2 137 45q41 35 41 86q0 96 -112 96q-84 0 -203 -53l-41 109q133 61 266 61q115 0 175.5 -55.5t60.5 -143.5q0 -70 -40 -122t-100 -72v-2q68 -10 116 -59.5t48 -125.5q0 -113 -78 -178 q-82 -72 -235 -71q-145 0 -238 45zM297 -41l913 1425h162l-913 -1425h-162zM903 184v101l393 530h140v-508h108v-123h-108v-184h-138v184h-395zM1067 299q98 8 160 8h69v94q0 180 2 213z" />
<glyph unicode="&#xbf;" horiz-adv-x="933" d="M125 -125q0 129 108 248q39 41 201 170q109 84 109 137q0 51 -62 125l105 86q102 -96 102 -209q0 -94 -106 -190q-98 -82 -199 -162q-106 -98 -107 -201q0 -78 49.5 -122t129.5 -44q143 0 274 127l74 -96q-145 -158 -367 -158q-143 0 -227 77t-84 212zM381 879 q0 47 31.5 80.5t79.5 33.5q47 0 78.5 -33.5t31.5 -80.5t-31.5 -81t-78.5 -34t-79 33.5t-32 81.5z" />
<glyph unicode="&#xc0;" horiz-adv-x="1187" d="M39 0l516 1354h84l518 -1354h-158l-139 360h-543l-129 -360h-149zM322 1726h206l183 -301h-138zM373 494h434l-160 456q-37 106 -51 168h-2q-16 -63 -53 -166z" />
<glyph unicode="&#xc1;" horiz-adv-x="1187" d="M39 0l516 1354h84l518 -1354h-158l-139 360h-543l-129 -360h-149zM373 494h434l-160 456q-37 106 -51 168h-2q-16 -63 -53 -166zM506 1425l182 301h207l-252 -301h-137z" />
<glyph unicode="&#xc2;" horiz-adv-x="1187" d="M39 0l516 1354h84l518 -1354h-158l-139 360h-543l-129 -360h-149zM317 1425l213 301h142l217 -301h-152l-137 201l-133 -201h-150zM373 494h434l-160 456q-37 106 -51 168h-2q-16 -63 -53 -166z" />
<glyph unicode="&#xc3;" horiz-adv-x="1187" d="M39 0l516 1354h84l518 -1354h-158l-139 360h-543l-129 -360h-149zM322 1493v49q0 61 40.5 101t100.5 40q47 0 110 -28l68 -31q53 -25 80 -25q45 0 45 52v20h104v-49q0 -61 -39.5 -101t-99.5 -40q-47 0 -113 28l-67 31q-53 25 -80 25q-45 0 -45 -52v-20h-104zM373 494h434 l-160 456q-37 106 -51 168h-2q-16 -63 -53 -166z" />
<glyph unicode="&#xc4;" horiz-adv-x="1187" d="M39 0l516 1354h84l518 -1354h-158l-139 360h-543l-129 -360h-149zM336 1548q0 41 27.5 70t68.5 29t68.5 -29t27.5 -70t-27.5 -69.5t-68.5 -28.5t-68.5 28.5t-27.5 69.5zM373 494h434l-160 456q-37 106 -51 168h-2q-16 -63 -53 -166zM684 1548q0 41 27.5 70t68.5 29 t69 -29t28 -70t-28 -69.5t-69 -28.5t-68.5 28.5t-27.5 69.5z" />
<glyph unicode="&#xc5;" horiz-adv-x="1187" d="M39 0l510 1339q-147 33 -148 191q0 86 55.5 139t143.5 53q86 0 141.5 -53t55.5 -139q0 -74 -42 -125t-112 -66l514 -1339h-158l-139 360h-543l-129 -360h-149zM373 494h434l-160 456q-37 106 -51 168h-2q-16 -63 -53 -166zM496 1532q0 -115 102 -115t102 115t-102 115 t-102 -115z" />
<glyph unicode="&#xc6;" horiz-adv-x="1622" d="M39 0l700 1350h766l-57 -140h-559l76 -450h479v-137h-453l84 -484h436v-139h-563l-63 360h-502l-188 -360h-156zM453 494h401l-66 436q-2 6 -24 190h-2q-14 -35 -92 -190z" />
<glyph unicode="&#xc7;" horiz-adv-x="1189" d="M94 659q0 297 188.5 499t483.5 202q217 0 344 -80v-160q-164 104 -350 105q-223 0 -364.5 -159t-141.5 -396q0 -246 135 -399.5t369 -153.5q160 0 317 86l45 -123q-176 -96 -362 -100l-25 -76q137 -12 137 -123q0 -70 -65 -113q-57 -37 -133 -37q-80 0 -125 27l31 82 q43 -25 92 -25q82 0 82 62q0 53 -86 55l-66 2l49 152q-256 29 -405.5 213t-149.5 460z" />
<glyph unicode="&#xc8;" horiz-adv-x="954" d="M176 0v1350h662l-58 -140h-454v-450h450v-137h-450v-484h518v-139h-668zM262 1726h207l182 -301h-137z" />
<glyph unicode="&#xc9;" horiz-adv-x="954" d="M176 0v1350h662l-58 -140h-454v-450h450v-137h-450v-484h518v-139h-668zM373 1425l182 301h207l-252 -301h-137z" />
<glyph unicode="&#xca;" horiz-adv-x="954" d="M176 0v1350h662l-58 -140h-454v-450h450v-137h-450v-484h518v-139h-668zM215 1425l213 301h141l217 -301h-151l-137 201l-133 -201h-150z" />
<glyph unicode="&#xcb;" horiz-adv-x="954" d="M176 0v1350h662l-58 -140h-454v-450h450v-137h-450v-484h518v-139h-668zM233 1548q0 41 28 70t69 29t68.5 -29t27.5 -70t-27.5 -69.5t-68.5 -28.5t-69 28.5t-28 69.5zM582 1548q0 41 27.5 70t68.5 29t68.5 -29t27.5 -70t-27.5 -69.5t-68.5 -28.5t-68.5 28.5t-27.5 69.5z " />
<glyph unicode="&#xcc;" horiz-adv-x="497" d="M-8 1726h207l182 -301h-137zM176 0v1350h150v-1350h-150z" />
<glyph unicode="&#xcd;" horiz-adv-x="497" d="M119 1425l182 301h207l-252 -301h-137zM176 0v1350h150v-1350h-150z" />
<glyph unicode="&#xce;" horiz-adv-x="497" d="M-33 1425l213 301h142l217 -301h-152l-137 201l-133 -201h-150zM176 0v1350h150v-1350h-150z" />
<glyph unicode="&#xcf;" horiz-adv-x="497" d="M-16 1548q0 41 27.5 70t68.5 29t68.5 -29t27.5 -70t-27.5 -69.5t-68.5 -28.5t-68.5 28.5t-27.5 69.5zM176 0v1350h150v-1350h-150zM332 1548q0 41 27.5 70t68.5 29t68.5 -29t27.5 -70t-27.5 -69.5t-68.5 -28.5t-68.5 28.5t-27.5 69.5z" />
<glyph unicode="&#xd0;" horiz-adv-x="1366" d="M84 608v137h164v605h293q369 0 561 -191q174 -174 174 -471q0 -301 -172 -483q-195 -205 -555 -205h-301v608h-164zM397 139h166q291 0 436 166q123 141 123 385q0 227 -133 367q-147 154 -422 153h-170v-465h348v-137h-348v-469z" />
<glyph unicode="&#xd1;" horiz-adv-x="1462" d="M176 0v1350h156l655 -877q127 -170 154 -227h4q-4 90 -4 164v940h149v-1350h-139l-684 909q-115 152 -141 211h-4q4 -90 4 -164v-956h-150zM451 1491v49q0 61 40.5 101t100.5 40q47 0 110 -28l68 -31q53 -25 80 -25q45 0 45 52v20h104v-49q0 -61 -39.5 -101t-99.5 -40 q-49 0 -112 28l-68 31q-53 25 -80 25q-45 0 -45 -52v-20h-104z" />
<glyph unicode="&#xd2;" horiz-adv-x="1519" d="M94 668q0 297 186.5 494.5t481.5 197.5q297 0 485 -199q183 -194 183 -493q0 -315 -203 -512q-182 -176 -465 -176q-299 0 -483.5 193.5t-184.5 494.5zM256 668q0 -252 136 -400.5t370 -148.5q233 0 369.5 148.5t136.5 400.5q0 244 -129 391q-135 158 -377 158 q-233 0 -369.5 -148.5t-136.5 -400.5zM469 1726h207l182 -301h-137z" />
<glyph unicode="&#xd3;" horiz-adv-x="1519" d="M94 668q0 297 186.5 494.5t481.5 197.5q297 0 485 -199q183 -194 183 -493q0 -315 -203 -512q-182 -176 -465 -176q-299 0 -483.5 193.5t-184.5 494.5zM256 668q0 -252 136 -400.5t370 -148.5q233 0 369.5 148.5t136.5 400.5q0 244 -129 391q-135 158 -377 158 q-233 0 -369.5 -148.5t-136.5 -400.5zM676 1425l182 301h207l-252 -301h-137z" />
<glyph unicode="&#xd4;" horiz-adv-x="1519" d="M94 668q0 297 186.5 494.5t481.5 197.5q297 0 485 -199q183 -194 183 -493q0 -315 -203 -512q-182 -176 -465 -176q-299 0 -483.5 193.5t-184.5 494.5zM256 668q0 -252 136 -400.5t370 -148.5q233 0 369.5 148.5t136.5 400.5q0 244 -129 391q-135 158 -377 158 q-233 0 -369.5 -148.5t-136.5 -400.5zM465 1425l213 301h141l217 -301h-151l-137 201l-134 -201h-149z" />
<glyph unicode="&#xd5;" horiz-adv-x="1519" d="M94 668q0 297 186.5 494.5t481.5 197.5q297 0 485 -199q183 -194 183 -493q0 -315 -203 -512q-182 -176 -465 -176q-299 0 -483.5 193.5t-184.5 494.5zM256 668q0 -252 136 -400.5t370 -148.5q233 0 369.5 148.5t136.5 400.5q0 244 -129 391q-135 158 -377 158 q-233 0 -369.5 -148.5t-136.5 -400.5zM485 1491v49q0 61 41 101t101 40q47 0 110 -28l68 -31q53 -25 80 -25q45 0 45 52v20h104v-49q0 -61 -40 -101t-99 -40q-47 0 -113 28l-67 31q-53 25 -80 25q-45 0 -45 -52v-20h-105z" />
<glyph unicode="&#xd6;" horiz-adv-x="1519" d="M94 668q0 297 186.5 494.5t481.5 197.5q297 0 485 -199q183 -194 183 -493q0 -315 -203 -512q-182 -176 -465 -176q-299 0 -483.5 193.5t-184.5 494.5zM256 668q0 -252 136 -400.5t370 -148.5q233 0 369.5 148.5t136.5 400.5q0 244 -129 391q-135 158 -377 158 q-233 0 -369.5 -148.5t-136.5 -400.5zM489 1548q0 41 28 70t69 29t68.5 -29t27.5 -70t-27.5 -69.5t-68.5 -28.5t-69 28.5t-28 69.5zM838 1548q0 41 27.5 70t68.5 29t68.5 -29t27.5 -70t-27.5 -69.5t-68.5 -28.5t-68.5 28.5t-27.5 69.5z" />
<glyph unicode="&#xd7;" horiz-adv-x="1282" d="M119 928l98 98l424 -422l424 422l98 -98l-424 -422l422 -424l-98 -98l-422 424l-422 -424l-98 98l422 424z" />
<glyph unicode="&#xd8;" horiz-adv-x="1519" d="M94 668q0 297 186.5 494.5t481.5 197.5q201 0 354 -94l109 143l110 -78l-110 -147q205 -192 205 -516q0 -299 -186.5 -496t-481.5 -197q-209 0 -373 107l-102 -137l-109 80l109 141q-193 193 -193 502zM252 668q0 -238 123 -385l655 870q-113 68 -268 68 q-233 0 -371.5 -150.5t-138.5 -402.5zM475 195q121 -80 287 -80q233 0 371.5 150.5t138.5 402.5t-135 399z" />
<glyph unicode="&#xd9;" horiz-adv-x="1353" d="M176 485v865h150v-867q0 -182 96 -280q86 -88 246 -88q352 0 352 356v879h149v-899q0 -229 -139 -355q-133 -117 -366 -116q-233 0 -357 118q-131 127 -131 387zM395 1726h207l182 -301h-137z" />
<glyph unicode="&#xda;" horiz-adv-x="1353" d="M176 485v865h150v-867q0 -182 96 -280q86 -88 246 -88q352 0 352 356v879h149v-899q0 -229 -139 -355q-133 -117 -366 -116q-233 0 -357 118q-131 127 -131 387zM580 1425l182 301h207l-252 -301h-137z" />
<glyph unicode="&#xdb;" horiz-adv-x="1353" d="M176 485v865h150v-867q0 -182 96 -280q86 -88 246 -88q352 0 352 356v879h149v-899q0 -229 -139 -355q-133 -117 -366 -116q-233 0 -357 118q-131 127 -131 387zM391 1425l213 301h141l218 -301h-152l-137 201l-133 -201h-150z" />
<glyph unicode="&#xdc;" horiz-adv-x="1353" d="M176 485v865h150v-867q0 -182 96 -280q86 -88 246 -88q352 0 352 356v879h149v-899q0 -229 -139 -355q-133 -117 -366 -116q-233 0 -357 118q-131 127 -131 387zM403 1548q0 41 28 70t69 29t68.5 -29t27.5 -70t-27.5 -69.5t-68.5 -28.5t-69 28.5t-28 69.5zM752 1548 q0 41 27.5 70t68.5 29t68.5 -29t27.5 -70t-27.5 -69.5t-68.5 -28.5t-68.5 28.5t-27.5 69.5z" />
<glyph unicode="&#xdd;" horiz-adv-x="1093" d="M33 1350h164l239 -432q45 -78 121 -226h4q41 92 113 226l233 432h158l-434 -809v-541h-150v545zM459 1450l182 301h207l-252 -301h-137z" />
<glyph unicode="&#xde;" horiz-adv-x="997" d="M176 0v1350h150v-230h112q211 0 335 -111.5t124 -308.5q0 -184 -109 -303q-123 -133 -354 -133h-108v-264h-150zM326 399h127q292 0 292 303q0 129 -77.5 204t-227.5 75h-114v-582z" />
<glyph unicode="&#xdf;" horiz-adv-x="1146" d="M135 -289v1301q0 236 144 350q109 88 276 88q160 0 266 -94q125 -111 125 -322q0 -39 -2 -59q-215 -43 -215 -154q0 -61 90 -139q152 -135 168 -152q90 -104 90 -221q0 -166 -108 -254q-96 -76 -258 -75q-160 0 -287 73l57 117q109 -70 236 -70q205 0 205 193 q0 94 -91 178q-82 70 -163 139q-90 88 -90 197q0 190 221 258q-4 117 -70.5 188.5t-175.5 71.5q-119 0 -188 -70q-80 -82 -80 -243v-1301h-150z" />
<glyph unicode="&#xe0;" horiz-adv-x="942" d="M84 276q0 145 99.5 227.5t289.5 88.5l197 6v45q0 221 -209 221q-135 0 -254 -90l-62 109q154 111 342 110q332 0 332 -327v-295q1 -320 21 -371h-123l-39 94q-119 -115 -297 -114q-123 0 -207 79q-90 84 -90 217zM213 1389h207l182 -302h-137zM233 287q0 -78 48 -125 q49 -53 141 -53q142 -1 248 110v246l-193 -6q-244 -8 -244 -172z" />
<glyph unicode="&#xe1;" horiz-adv-x="942" d="M84 276q0 145 99.5 227.5t289.5 88.5l197 6v45q0 221 -209 221q-135 0 -254 -90l-62 109q154 111 342 110q332 0 332 -327v-295q1 -320 21 -371h-123l-39 94q-119 -115 -297 -114q-123 0 -207 79q-90 84 -90 217zM233 287q0 -78 48 -125q49 -53 141 -53q142 -1 248 110 v246l-193 -6q-244 -8 -244 -172zM373 1087l182 302h207l-252 -302h-137z" />
<glyph unicode="&#xe2;" horiz-adv-x="942" d="M84 276q0 145 99.5 227.5t289.5 88.5l197 6v45q0 221 -209 221q-135 0 -254 -90l-62 109q154 111 342 110q332 0 332 -327v-295q1 -320 21 -371h-123l-39 94q-119 -115 -297 -114q-123 0 -207 79q-90 84 -90 217zM205 1087l213 302h141l217 -302h-151l-138 201l-133 -201 h-149zM233 287q0 -78 48 -125q49 -53 141 -53q142 -1 248 110v246l-193 -6q-244 -8 -244 -172z" />
<glyph unicode="&#xe3;" horiz-adv-x="942" d="M84 276q0 145 99.5 227.5t289.5 88.5l197 6v45q0 221 -209 221q-135 0 -254 -90l-62 109q154 111 342 110q332 0 332 -327v-295q1 -320 21 -371h-123l-39 94q-119 -115 -297 -114q-123 0 -207 79q-90 84 -90 217zM227 1137v49q0 61 41 101t101 40q47 0 110 -29l68 -30 q53 -25 80 -25q45 0 45 51v21h104v-49q0 -61 -40 -101.5t-99 -40.5q-47 0 -113 29l-67 31q-53 25 -80 24q-45 0 -45 -51v-20h-105zM233 287q0 -78 48 -125q49 -53 141 -53q142 -1 248 110v246l-193 -6q-244 -8 -244 -172z" />
<glyph unicode="&#xe4;" horiz-adv-x="942" d="M84 276q0 145 99.5 227.5t289.5 88.5l197 6v45q0 221 -209 221q-135 0 -254 -90l-62 109q154 111 342 110q332 0 332 -327v-295q1 -320 21 -371h-123l-39 94q-119 -115 -297 -114q-123 0 -207 79q-90 84 -90 217zM213 1249q0 41 27.5 70t68.5 29t69 -29t28 -70t-28 -69.5 t-69 -28.5t-68.5 28.5t-27.5 69.5zM233 287q0 -78 48 -125q49 -53 141 -53q142 -1 248 110v246l-193 -6q-244 -8 -244 -172zM561 1249q0 41 27.5 70t68.5 29t69 -29t28 -70t-28 -69.5t-69 -28.5t-68.5 28.5t-27.5 69.5z" />
<glyph unicode="&#xe5;" horiz-adv-x="942" d="M84 276q0 145 99.5 227.5t289.5 88.5l197 6v45q0 221 -209 221q-135 0 -254 -90l-62 109q154 111 342 110q332 0 332 -327v-295q1 -320 21 -371h-123l-39 94q-119 -115 -297 -114q-123 0 -207 79q-90 84 -90 217zM233 287q0 -78 48 -125q49 -53 141 -53q142 -1 248 110 v246l-193 -6q-244 -8 -244 -172zM293 1266q0 86 55 139t144 53q86 0 141 -53t55 -139t-56.5 -140.5t-142.5 -54.5q-88 0 -142 53.5t-54 141.5zM387 1268q0 -115 102 -115q103 0 103 115t-103 114q-102 0 -102 -114z" />
<glyph unicode="&#xe6;" horiz-adv-x="1521" d="M84 276q0 311 414 312h176v55q0 221 -213 221q-135 0 -254 -90l-60 105q152 115 340 114q213 0 289 -143q115 143 279 143q184 0 285.5 -135t101.5 -364v-33h-621q0 -150 80 -246q88 -104 242 -104q121 0 229 69l45 -102q-119 -98 -305 -98q-221 0 -344 172 q-88 -82 -150 -117q-98 -55 -219 -55q-135 0 -225 80.5t-90 215.5zM233 287q0 -78 48 -125q53 -53 149 -53q156 0 285 139q-43 88 -49 213h-144q-289 0 -289 -174zM821 588h457q0 111 -55 190q-63 90 -168 90q-104 0 -169 -80.5t-65 -199.5z" />
<glyph unicode="&#xe7;" horiz-adv-x="862" d="M84 473q0 217 119 361q131 160 360 159q137 0 246 -61v-141q-113 72 -252 71q-150 0 -235.5 -106.5t-85.5 -272.5q0 -164 86 -269t231 -105q127 0 242 71l47 -106q-123 -78 -262 -92l-25 -78q137 -12 137 -123q0 -70 -65 -113q-57 -37 -133 -37q-80 0 -125 27l30 82 q43 -25 93 -25q82 0 81 62q0 53 -86 55l-65 2l47 150q-182 23 -287 166q-98 133 -98 323z" />
<glyph unicode="&#xe8;" horiz-adv-x="944" d="M84 504q0 213 109.5 351t283.5 138q184 0 285.5 -135t101.5 -364v-35h-620q0 -147 80 -244q88 -104 241 -104q121 0 230 69l45 -102q-119 -98 -305 -98q-217 0 -338 157q-113 145 -113 367zM246 586h456q0 111 -55 190q-63 90 -168 90q-104 0 -168.5 -80.5t-64.5 -199.5z M252 1389h207l182 -302h-137z" />
<glyph unicode="&#xe9;" horiz-adv-x="944" d="M84 504q0 213 109.5 351t283.5 138q184 0 285.5 -135t101.5 -364v-35h-620q0 -147 80 -244q88 -104 241 -104q121 0 230 69l45 -102q-119 -98 -305 -98q-217 0 -338 157q-113 145 -113 367zM246 586h456q0 111 -55 190q-63 90 -168 90q-104 0 -168.5 -80.5t-64.5 -199.5z M410 1087l182 302h207l-252 -302h-137z" />
<glyph unicode="&#xea;" horiz-adv-x="944" d="M84 504q0 213 109.5 351t283.5 138q184 0 285.5 -135t101.5 -364v-35h-620q0 -147 80 -244q88 -104 241 -104q121 0 230 69l45 -102q-119 -98 -305 -98q-217 0 -338 157q-113 145 -113 367zM207 1087l213 302h141l217 -302h-151l-138 201l-133 -201h-149zM246 586h456 q0 111 -55 190q-63 90 -168 90q-104 0 -168.5 -80.5t-64.5 -199.5z" />
<glyph unicode="&#xeb;" horiz-adv-x="944" d="M84 504q0 213 109.5 351t283.5 138q184 0 285.5 -135t101.5 -364v-35h-620q0 -147 80 -244q88 -104 241 -104q121 0 230 69l45 -102q-119 -98 -305 -98q-217 0 -338 157q-113 145 -113 367zM217 1249q0 41 27.5 70t68.5 29t69 -29t28 -70t-28 -69.5t-69 -28.5t-68.5 28.5 t-27.5 69.5zM246 586h456q0 111 -55 190q-63 90 -168 90q-104 0 -168.5 -80.5t-64.5 -199.5zM565 1249q0 41 28 70t69 29t68.5 -29t27.5 -70t-28 -69.5t-68 -28.5q-41 0 -69 28.5t-28 69.5z" />
<glyph unicode="&#xec;" horiz-adv-x="471" d="M-25 1389h207l183 -302h-138zM162 0v969h149v-969h-149z" />
<glyph unicode="&#xed;" horiz-adv-x="471" d="M127 1087l182 302h207l-252 -302h-137zM162 0v969h149v-969h-149z" />
<glyph unicode="&#xee;" horiz-adv-x="471" d="M-41 1087l213 302h141l217 -302h-151l-137 201l-133 -201h-150zM162 0v969h149v-969h-149z" />
<glyph unicode="&#xef;" horiz-adv-x="471" d="M-27 1249q0 41 28 70t69 29t68.5 -29t27.5 -70t-27.5 -69.5t-68.5 -28.5t-69 28.5t-28 69.5zM162 0v969h149v-969h-149zM322 1249q0 41 27.5 70t68.5 29t68.5 -29t27.5 -70t-27.5 -69.5t-68.5 -28.5t-68.5 28.5t-27.5 69.5z" />
<glyph unicode="&#xf0;" horiz-adv-x="1130" d="M104 492q0 223 122 362t315 139q145 0 233 -65q57 -43 107 -133h2q-23 272 -187 426l-268 -117l-47 113l205 88q-115 63 -285 81l39 125q238 -33 397 -141l246 105l47 -113l-190 -82q190 -209 190 -676q0 -305 -129 -469q-125 -156 -342 -155q-215 0 -338 151 q-117 141 -117 361zM258 496q0 -176 82 -280.5t225 -104.5q145 0 224 106.5t79 282.5q0 156 -82 260q-88 109 -225 108q-143 0 -223 -99t-80 -273z" />
<glyph unicode="&#xf1;" horiz-adv-x="1034" d="M135 0v969h123l21 -115q190 139 346 139q115 0 192 -80q86 -92 86 -262v-651h-149v596q0 256 -168 256q-131 0 -301 -152v-700h-150zM264 1137v49q0 61 41 101t101 40q47 0 110 -29l68 -30q53 -25 80 -25q45 0 45 51v21h104v-49q0 -61 -40 -101.5t-99 -40.5 q-49 0 -113 29l-67 31q-53 25 -80 24q-45 0 -45 -51v-20h-105z" />
<glyph unicode="&#xf2;" horiz-adv-x="1044" d="M84 485q0 213 111 355q121 154 327 153q209 0 332 -151q111 -142 111 -357q0 -217 -113 -356q-121 -150 -332 -149q-184 0 -301 118q-135 139 -135 387zM236 489q0 -174 77.5 -277t210.5 -103t211 103t78 277t-77 275.5t-214 101.5q-135 0 -210.5 -101t-75.5 -276z M264 1389h207l182 -302h-137z" />
<glyph unicode="&#xf3;" horiz-adv-x="1044" d="M84 485q0 213 111 355q121 154 327 153q209 0 332 -151q111 -142 111 -357q0 -217 -113 -356q-121 -150 -332 -149q-184 0 -301 118q-135 139 -135 387zM236 489q0 -174 77.5 -277t210.5 -103t211 103t78 277t-77 275.5t-214 101.5q-135 0 -210.5 -101t-75.5 -276z M469 1087l182 302h207l-252 -302h-137z" />
<glyph unicode="&#xf4;" horiz-adv-x="1044" d="M84 485q0 213 111 355q121 154 327 153q209 0 332 -151q111 -142 111 -357q0 -217 -113 -356q-121 -150 -332 -149q-184 0 -301 118q-135 139 -135 387zM236 489q0 -174 77.5 -277t210.5 -103t211 103t78 277t-77 275.5t-214 101.5q-135 0 -210.5 -101t-75.5 -276z M248 1087l213 302h141l217 -302h-151l-138 201l-133 -201h-149z" />
<glyph unicode="&#xf5;" horiz-adv-x="1044" d="M84 485q0 213 111 355q121 154 327 153q209 0 332 -151q111 -142 111 -357q0 -217 -113 -356q-121 -150 -332 -149q-184 0 -301 118q-135 139 -135 387zM236 489q0 -174 77.5 -277t210.5 -103t211 103t78 277t-77 275.5t-214 101.5q-135 0 -210.5 -101t-75.5 -276z M283 1137v49q0 61 41 101t100 40q47 0 111 -29l67 -30q53 -25 80 -25q45 0 45 51v21h104v-49q0 -61 -39.5 -101.5t-99.5 -40.5q-47 0 -112 29l-68 31q-53 25 -80 24q-45 0 -45 -51v-20h-104z" />
<glyph unicode="&#xf6;" horiz-adv-x="1044" d="M84 485q0 213 111 355q121 154 327 153q209 0 332 -151q111 -142 111 -357q0 -217 -113 -356q-121 -150 -332 -149q-184 0 -301 118q-135 139 -135 387zM236 489q0 -174 77.5 -277t210.5 -103t211 103t78 277t-77 275.5t-214 101.5q-135 0 -210.5 -101t-75.5 -276z M256 1249q0 41 27.5 70t68.5 29t69 -29t28 -70t-28 -69.5t-69 -28.5t-68.5 28.5t-27.5 69.5zM604 1249q0 41 27.5 70t68.5 29t69 -29t28 -70t-28 -69.5t-69 -28.5t-68.5 28.5t-27.5 69.5z" />
<glyph unicode="&#xf7;" horiz-adv-x="1282" d="M156 451v139h970v-139h-970zM530 162q0 47 32 80.5t79 33.5t79 -33.5t32 -80.5t-32 -81t-79 -34t-79 34t-32 81zM530 879q0 47 32 80.5t79 33.5t79 -33.5t32 -80.5t-32 -81t-79 -34t-79 33.5t-32 81.5z" />
<glyph unicode="&#xf8;" horiz-adv-x="1050" d="M84 0l104 139q-100 135 -100 346q0 213 111 355q121 154 327 153q143 0 250 -75l94 118l101 -71l-105 -138q102 -135 103 -342q0 -217 -113 -356q-121 -150 -332 -149q-143 0 -245 71l-95 -127zM240 489q0 -129 45 -225l411 547q-68 55 -170 55q-135 0 -210.5 -101 t-75.5 -276zM365 164q68 -55 163 -55q133 0 211 103t78 277q0 125 -41 218z" />
<glyph unicode="&#xf9;" horiz-adv-x="1032" d="M135 319v650h150v-635q0 -225 188 -225q156 0 258 129v731h150v-563q0 -347 20 -406h-119l-39 100q-141 -121 -313 -120q-121 0 -197 67q-98 88 -98 272zM225 1389h207l182 -302h-137z" />
<glyph unicode="&#xfa;" horiz-adv-x="1032" d="M135 319v650h150v-635q0 -225 188 -225q156 0 258 129v731h150v-563q0 -347 20 -406h-119l-39 100q-141 -121 -313 -120q-121 0 -197 67q-98 88 -98 272zM430 1087l182 302h207l-252 -302h-137z" />
<glyph unicode="&#xfb;" horiz-adv-x="1032" d="M135 319v650h150v-635q0 -225 188 -225q156 0 258 129v731h150v-563q0 -347 20 -406h-119l-39 100q-141 -121 -313 -120q-121 0 -197 67q-98 88 -98 272zM221 1087l213 302h141l218 -302h-152l-137 201l-133 -201h-150z" />
<glyph unicode="&#xfc;" horiz-adv-x="1032" d="M135 319v650h150v-635q0 -225 188 -225q156 0 258 129v731h150v-563q0 -347 20 -406h-119l-39 100q-141 -121 -313 -120q-121 0 -197 67q-98 88 -98 272zM240 1249q0 41 27.5 70t68.5 29t68.5 -29t27.5 -70t-27.5 -69.5t-68.5 -28.5t-68.5 28.5t-27.5 69.5zM588 1249 q0 41 27.5 70t68.5 29t68.5 -29t27.5 -70t-27.5 -69.5t-68.5 -28.5t-68.5 28.5t-27.5 69.5z" />
<glyph unicode="&#xfd;" horiz-adv-x="1038" d="M-4 -451l37 117q61 -31 141 -31q203 0 301 355l-436 979h160l346 -793h6l264 793h150l-369 -1061q-80 -229 -195 -322q-92 -72 -229 -71q-96 0 -176 34zM418 1087l182 302h207l-252 -302h-137z" />
<glyph unicode="&#xfe;" horiz-adv-x="1052" d="M156 -483v1933h149v-475q88 18 168 18q221 0 350 -132t129 -363q0 -219 -136 -368.5t-349 -149.5q-84 0 -162 30v-493h-149zM305 147q84 -39 156 -38q154 0 247 103.5t93 281.5q0 180 -99 278q-88 86 -231 86q-88 0 -166 -24v-687z" />
<glyph unicode="&#xff;" horiz-adv-x="976" d="M-25 -451l37 117q61 -31 142 -31q203 0 301 355l-437 979h160l346 -793h6l265 793h149l-369 -1061q-80 -229 -194 -322q-92 -72 -229 -71q-96 0 -177 34zM229 1249q0 41 28 70t69 29t68.5 -29t27.5 -70t-27.5 -69.5t-68.5 -28.5t-69 28.5t-28 69.5zM578 1249 q0 41 27.5 70t68.5 29t68.5 -29t27.5 -70t-27.5 -69.5t-68.5 -28.5t-68.5 28.5t-27.5 69.5z" />
<glyph unicode="&#x152;" horiz-adv-x="1746" d="M94 668q0 303 187.5 497.5t480.5 194.5q18 0 135 -5t150 -5h583l-57 -140h-455v-450h451v-137h-451v-484h518v-139h-510q-29 0 -176 -11.5t-188 -11.5q-297 0 -482.5 196t-185.5 495zM252 668q0 -252 138 -402.5t372 -150.5q37 0 207 18v1073q-172 14 -207 15 q-233 0 -371.5 -150.5t-138.5 -402.5z" />
<glyph unicode="&#x153;" horiz-adv-x="1662" d="M84 485q0 213 111 355q121 154 327 153q238 0 357 -194q109 195 317 194q184 0 285.5 -135t101.5 -364v-35h-620q0 -147 79 -244q88 -104 242 -104q121 0 229 69l46 -102q-119 -98 -306 -98q-246 0 -368 202q-119 -205 -365 -205q-182 0 -301 121q-135 139 -135 387z M236 489q0 -174 77.5 -277t210.5 -103t211 103t78 277t-77 275.5t-214 101.5q-135 0 -210.5 -101t-75.5 -276zM965 586h456q0 111 -55 190q-63 90 -168 90q-104 0 -168.5 -80.5t-64.5 -199.5z" />
<glyph unicode="&#x178;" horiz-adv-x="1093" d="M33 1350h164l239 -432q45 -78 121 -226h4q41 92 113 226l233 432h158l-434 -809v-541h-150v545zM281 1548q0 41 27.5 70t68.5 29t68.5 -29t27.5 -70t-27.5 -69.5t-68.5 -28.5t-68.5 28.5t-27.5 69.5zM629 1548q0 41 27.5 70t68.5 29t68.5 -29t27.5 -70t-27.5 -69.5 t-68.5 -28.5t-68.5 28.5t-27.5 69.5z" />
<glyph unicode="&#x2c6;" horiz-adv-x="854" d="M143 1087l213 302h142l217 -302h-152l-137 201l-133 -201h-150z" />
<glyph unicode="&#x2dc;" horiz-adv-x="819" d="M137 1137v49q0 61 41 101t101 40q47 0 110 -29l68 -30q53 -25 80 -25q45 0 45 51v21h104v-49q0 -61 -40 -101.5t-99 -40.5q-49 0 -113 29l-67 31q-53 25 -80 24q-45 0 -45 -51v-20h-105z" />
<glyph unicode="&#x2000;" horiz-adv-x="875" />
<glyph unicode="&#x2001;" horiz-adv-x="1751" />
<glyph unicode="&#x2002;" horiz-adv-x="875" />
<glyph unicode="&#x2003;" horiz-adv-x="1751" />
<glyph unicode="&#x2004;" horiz-adv-x="583" />
<glyph unicode="&#x2005;" horiz-adv-x="437" />
<glyph unicode="&#x2006;" horiz-adv-x="291" />
<glyph unicode="&#x2007;" horiz-adv-x="291" />
<glyph unicode="&#x2008;" horiz-adv-x="218" />
<glyph unicode="&#x2009;" horiz-adv-x="350" />
<glyph unicode="&#x200a;" horiz-adv-x="97" />
<glyph unicode="&#x2010;" horiz-adv-x="743" d="M104 438v135h539v-135h-539z" />
<glyph unicode="&#x2011;" horiz-adv-x="743" d="M104 438v135h539v-135h-539z" />
<glyph unicode="&#x2012;" horiz-adv-x="743" d="M104 438v135h539v-135h-539z" />
<glyph unicode="&#x2013;" horiz-adv-x="1024" d="M0 449v124h1024v-124h-1024z" />
<glyph unicode="&#x2014;" horiz-adv-x="2048" d="M0 449v124h2048v-124h-2048z" />
<glyph unicode="&#x2018;" horiz-adv-x="468" d="M135 1223q0 131 66 247l84 -26q-12 -63 -13 -121q0 -120 66 -274l-145 -76q-57 127 -58 250z" />
<glyph unicode="&#x2019;" horiz-adv-x="487" d="M135 1034q63 127 64 262q0 57 -11 134l158 34q10 -57 10 -112q0 -213 -145 -367z" />
<glyph unicode="&#x201a;" horiz-adv-x="487" d="M135 -195q63 127 64 263q0 57 -11 133l158 35q10 -57 10 -113q0 -213 -145 -367z" />
<glyph unicode="&#x201c;" horiz-adv-x="790" d="M135 1223q0 131 66 247l84 -26q-12 -63 -13 -121q0 -120 66 -274l-145 -76q-57 127 -58 250zM457 1223q0 131 65 247l84 -26q-12 -63 -12 -121q-1 -120 65 -274l-145 -76q-57 127 -57 250z" />
<glyph unicode="&#x201d;" horiz-adv-x="808" d="M135 1034q63 127 64 262q0 57 -11 134l158 34q10 -57 10 -112q0 -213 -145 -367zM457 1034q63 127 63 262q0 57 -10 134l158 34q10 -57 10 -112q0 -213 -146 -367z" />
<glyph unicode="&#x201e;" horiz-adv-x="808" d="M135 -195q63 127 64 263q0 57 -11 133l158 35q10 -57 10 -113q0 -213 -145 -367zM457 -195q63 127 63 263q0 57 -10 133l158 35q10 -57 10 -113q0 -213 -146 -367z" />
<glyph unicode="&#x2022;" horiz-adv-x="608" d="M113 651q0 84 54 141.5t136 57.5t137.5 -57.5t55.5 -141.5q0 -82 -55.5 -139t-137.5 -57q-80 0 -135 57t-55 139z" />
<glyph unicode="&#x2026;" horiz-adv-x="1437" d="M98 92q0 47 32 81t79 34t78.5 -34t31.5 -81t-31.5 -81t-78.5 -34t-79 34t-32 81zM614 92q0 47 32 81t79 34t79 -34t32 -81t-32 -81t-79 -34t-79 34t-32 81zM1130 92q0 47 32 81t79 34t79 -34t32 -81t-32 -81t-79 -34t-79 34t-32 81z" />
<glyph unicode="&#x202f;" horiz-adv-x="350" />
<glyph unicode="&#x2039;" horiz-adv-x="710" d="M104 494l336 475l119 -76l-287 -399l287 -398l-119 -76z" />
<glyph unicode="&#x203a;" horiz-adv-x="710" d="M156 96l286 398l-286 399l118 76l336 -475l-336 -474z" />
<glyph unicode="&#x205f;" horiz-adv-x="437" />
<glyph unicode="&#x2122;" horiz-adv-x="1638" d="M53 1237v113h596l-43 -113h-209v-696h-118v696h-226zM694 541v809h123l227 -344q16 -25 52 -91h4q12 27 49 93l215 342h123v-809h-117v510q0 63 4 106h-2q-14 -37 -55 -100l-182 -285h-76l-193 285q-37 55 -55 100h-2q4 -43 4 -106v-510h-119z" />
<glyph unicode="&#x25fc;" horiz-adv-x="972" d="M0 0v973h973v-973h-973z" />
</font>
</defs>
</svg>
